<svg width="102" height="73" viewBox="0 0 102 73" fill="none" xmlns="http://www.w3.org/2000/svg">
<path d="M38.9044 33.1417C38.9044 29.7497 36.1547 27 32.7627 27H6.14172C2.74974 27 0 29.7497 0 33.1417V59.8568C0 63.2488 2.74975 65.9985 6.14173 65.9985H32.7627C36.1547 65.9985 38.9044 63.2488 38.9044 59.8568V33.1417Z" fill="#603BE5"/>
<path opacity="0.4" d="M26.4576 65.9993C25.4147 66.0006 23.3734 65.1488 22.6393 64.408C19.6584 61.4002 15.4865 57.154 13.1536 54.7771C12.0264 53.6286 11.3975 52.0844 11.3988 50.4752L11.4027 45.8504C11.405 43.0651 13.697 40.8264 16.4815 40.8896C17.1888 40.9056 17.8844 41.0726 18.5219 41.3792L19.6106 41.903L20.4349 42.4539C20.5178 42.5093 20.5958 42.5711 20.6679 42.64C20.7944 42.7608 21.0346 42.9926 21.4042 43.3582C22.3166 44.2605 23.8806 43.6259 23.8806 42.3427C23.8806 41.5536 24.5203 40.9139 25.3094 40.9139H25.5134C25.9834 40.9139 26.4255 41.1107 26.7363 41.4632C28.3439 43.2868 33.6131 49.2417 37.2366 53.0741C38.3539 54.2558 39 55.8118 39 57.438V58.3862C38.9753 59.0789 38.9957 60.7521 38.9994 61.0388C38.9998 61.0675 39 61.0953 39 61.124V63.1421C39 64.7179 37.7225 65.9954 36.1466 65.9954H34.2554L31.2559 65.989C31.2454 65.989 31.2365 65.989 31.226 65.989C30.9817 65.9897 27.652 65.9993 26.4576 65.9993Z" fill="#282828" fill-opacity="0.5"/>
<path d="M15.4683 40.7319C16.7208 40.7319 17.8197 40.9773 18.7648 41.4682C19.7212 41.959 20.4557 42.6609 20.9681 43.5741C21.4919 44.4758 21.7538 45.5259 21.7538 46.7244C21.7538 47.9229 21.4919 48.973 20.9681 49.8747C20.4557 50.765 19.7212 51.4556 18.7648 51.9464C17.8197 52.4372 16.7208 52.6826 15.4683 52.6826H11.3008V40.7319H15.4683ZM15.3829 50.6452C16.6355 50.6452 17.6033 50.3028 18.2865 49.6179C18.9697 48.933 19.3113 47.9685 19.3113 46.7244C19.3113 45.4802 18.9697 44.51 18.2865 43.8138C17.6033 43.1061 16.6355 42.7523 15.3829 42.7523H13.692V50.6452H15.3829ZM26.3277 45.1664V49.7549C26.3277 50.0745 26.4017 50.3084 26.5498 50.4568C26.7092 50.5938 26.9711 50.6623 27.3355 50.6623H28.4457V52.6826H26.9426C24.9272 52.6826 23.9194 51.701 23.9194 49.7377V45.1664H22.7922V43.1974H23.9194V40.8518H26.3277V43.1974H28.4457V45.1664H26.3277Z" fill="#F4F5FC"/>
<path d="M49.456 53V41.8H54.048C54.8693 41.8 55.6107 41.9387 56.272 42.216C56.944 42.4827 57.52 42.8667 58 43.368C58.4907 43.8587 58.864 44.4453 59.12 45.128C59.376 45.8107 59.504 46.568 59.504 47.4C59.504 48.2213 59.376 48.9787 59.12 49.672C58.864 50.3547 58.496 50.9467 58.016 51.448C57.536 51.9387 56.96 52.3227 56.288 52.6C55.616 52.8667 54.8693 53 54.048 53H49.456ZM51.856 51.256L51.6 50.84H53.968C54.448 50.84 54.88 50.76 55.264 50.6C55.648 50.4293 55.9733 50.2 56.24 49.912C56.5173 49.6133 56.7253 49.2507 56.864 48.824C57.0027 48.3973 57.072 47.9227 57.072 47.4C57.072 46.8773 57.0027 46.408 56.864 45.992C56.7253 45.5653 56.5173 45.2027 56.24 44.904C55.9733 44.6053 55.648 44.376 55.264 44.216C54.88 44.0453 54.448 43.96 53.968 43.96H51.552L51.856 43.576V51.256ZM65.1308 53.16C64.2134 53.16 63.4134 52.9733 62.7308 52.6C62.0481 52.2267 61.5148 51.7147 61.1308 51.064C60.7468 50.4133 60.5548 49.6667 60.5548 48.824C60.5548 48.1733 60.6614 47.576 60.8748 47.032C61.0881 46.488 61.3868 46.0187 61.7708 45.624C62.1548 45.2187 62.6081 44.9093 63.1308 44.696C63.6641 44.472 64.2401 44.36 64.8588 44.36C65.4348 44.36 65.9681 44.4667 66.4588 44.68C66.9494 44.8827 67.3708 45.176 67.7228 45.56C68.0854 45.9333 68.3628 46.376 68.5548 46.888C68.7468 47.4 68.8321 47.96 68.8108 48.568L68.7948 49.272H61.9948L61.6268 47.88H66.9228L66.6668 48.168V47.816C66.6454 47.528 66.5494 47.2667 66.3788 47.032C66.2188 46.7973 66.0108 46.616 65.7548 46.488C65.4988 46.36 65.2108 46.296 64.8908 46.296C64.4214 46.296 64.0214 46.3867 63.6908 46.568C63.3708 46.7493 63.1254 47.016 62.9548 47.368C62.7841 47.72 62.6988 48.1467 62.6988 48.648C62.6988 49.16 62.8054 49.6027 63.0188 49.976C63.2428 50.3493 63.5521 50.6427 63.9468 50.856C64.3521 51.0587 64.8268 51.16 65.3708 51.16C65.7441 51.16 66.0854 51.1013 66.3948 50.984C66.7041 50.8667 67.0348 50.664 67.3868 50.376L68.4748 51.896C68.1654 52.1733 67.8241 52.408 67.4508 52.6C67.0774 52.7813 66.6934 52.92 66.2988 53.016C65.9041 53.112 65.5148 53.16 65.1308 53.16ZM69.9138 53V51.56L74.3778 45.768V46.408H69.9138V44.536H76.6658V46.008L72.3938 51.656L72.3298 51.128H76.7778V53H69.9138ZM79.6625 56.68L81.5185 52.328L81.5505 53.64L77.4225 44.536H79.9985L82.0625 49.416C82.1478 49.5973 82.2278 49.8107 82.3025 50.056C82.3878 50.2907 82.4572 50.52 82.5105 50.744L82.1265 50.904C82.1905 50.7227 82.2652 50.5147 82.3505 50.28C82.4358 50.0453 82.5212 49.7947 82.6065 49.528L84.3825 44.536H86.9745L83.4225 53L81.9665 56.68H79.6625ZM87.9893 53V50.936H89.8613V43.864H87.9893V41.8H94.1333V43.864H92.2613V50.936H94.1333V53H87.9893ZM97.0176 53V42.392H99.2896V53H97.0176ZM95.4336 46.568V44.536H101.018V46.568H95.4336Z" fill="#603BE5"/>
</svg>
